Coordinates
version=1
nRows=43
nColumns=12
inDegrees=yes

Units are S.I. units (second, meters, Newtons, ...)
Angles are in degrees

endheader
time	SC_y	SC_z	SC_x	AC_y	AC_z	AC_x	GH_y	GH_z	GH_yy	EL_x	PS_y
       0.0               -45.9          16.69          13.97           62.0         -7.759          12.55          101.2          19.93         -55.53          25.24          19.06
   0.03534               -45.9          16.69          13.97          61.99         -7.759          12.55          101.2          19.92         -55.52          25.25          19.07
   0.07068               -45.9          16.69          13.98          61.99         -7.758          12.55          101.2          19.92         -55.51          25.26          19.09
     0.106               -45.9          16.69          13.99          61.98         -7.757          12.55          101.2          19.92          -55.5          25.28           19.1
    0.1414               -45.9          16.69           14.0          61.98         -7.757          12.55          101.2          19.92         -55.49          25.29          19.11
    0.1767               -45.9          16.69           14.0          61.97         -7.756          12.55          101.3          19.92         -55.48           25.3          19.13
     0.212               -45.9          16.69          14.01          61.97         -7.755          12.55          101.3          19.92         -55.47          25.32          19.15
    0.2474               -45.9          16.69          14.02          61.96         -7.754          12.55          101.3          19.91         -55.46          25.34          19.16
    0.2827               -45.9          16.69          14.03          61.95         -7.753          12.55          101.3          19.91         -55.44          25.35          19.18
     0.318               -45.9          16.68          14.04          61.94         -7.752          12.55          101.3          19.91         -55.43          25.37           19.2
    0.3534               -45.9          16.68          14.06          61.94         -7.751          12.55          101.3           19.9         -55.41          25.39          19.22
    0.3887               -45.9          16.68          14.07          61.93          -7.75          12.55          101.3           19.9          -55.4          25.42          19.25
    0.4241               -45.9          16.68          14.08          61.92         -7.749          12.55          101.3           19.9         -55.38          25.44          19.27
    0.4594               -45.9          16.68           14.1          61.91         -7.747          12.55          101.4          19.89         -55.36          25.46           19.3
    0.4947               -45.9          16.68          14.11           61.9         -7.746          12.55          101.4          19.89         -55.34          25.49          19.33
    0.5301               -45.9          16.68          14.13          61.89         -7.744          12.55          101.4          19.89         -55.32          25.52          19.36
    0.5654               -45.9          16.68          14.15          61.87         -7.742          12.55          101.4          19.88         -55.29          25.55          19.39
    0.6008              -45.89          16.68          14.17          61.86         -7.741          12.55          101.4          19.88         -55.27          25.59          19.43
    0.6361              -45.89          16.68          14.19          61.84         -7.738          12.55          101.5          19.87         -55.24          25.63          19.47
    0.6714              -45.89          16.68          14.22          61.83         -7.736          12.55          101.5          19.86         -55.21          25.67          19.52
    0.7068              -45.89          16.68          14.24          61.81         -7.734          12.55          101.5          19.86         -55.17          25.72          19.57
    0.7421              -45.89          16.67          14.27          61.79         -7.731          12.55          101.6          19.85         -55.13          25.77          19.62
    0.7774              -45.89          16.67           14.3          61.77         -7.728          12.55          101.6          19.84         -55.09          25.82          19.68
    0.8128              -45.89          16.67          14.34          61.74         -7.725          12.55          101.6          19.83         -55.05          25.89          19.75
    0.8481              -45.89          16.67          14.38          61.72         -7.721          12.55          101.7          19.82         -54.99          25.96          19.82
    0.8835              -45.89          16.67          14.43          61.68         -7.717          12.55          101.7          19.81         -54.94          26.03           19.9
    0.9188              -45.88          16.67          14.48          61.65         -7.712          12.55          101.8           19.8         -54.87          26.12           20.0
    0.9541              -45.88          16.66          14.53          61.61         -7.707          12.55          101.9          19.79          -54.8          26.22           20.1
    0.9895              -45.88          16.66           14.6          61.57         -7.701          12.55          101.9          19.77         -54.72          26.33          20.22
     1.025              -45.88          16.66          14.67          61.52         -7.694          12.55          102.0          19.75         -54.62          26.45          20.35
      1.06              -45.87          16.65          14.75          61.46         -7.686          12.55          102.1          19.73         -54.52           26.6           20.5
     1.095              -45.87          16.65          14.85           61.4         -7.677          12.55          102.2          19.71         -54.39          26.76          20.68
     1.131              -45.87          16.64          14.96          61.32         -7.667          12.55          102.3          19.68         -54.25          26.95          20.88
     1.166              -45.86          16.64          15.08          61.24         -7.655          12.55          102.5          19.65         -54.09          27.17          21.11
     1.202              -45.86          16.63          15.23          61.14         -7.641          12.55          102.7          19.61          -53.9          27.43          21.39
     1.237              -45.85          16.62          15.41          61.02         -7.625          12.55          102.9          19.57         -53.67          27.73          21.71
     1.272              -45.85          16.61          15.62          60.87         -7.605          12.55          103.1          19.52          -53.4          28.09          22.09
     1.308              -45.84           16.6          15.87           60.7         -7.582          12.55          103.4          19.45         -53.08          28.53          22.55
     1.343              -45.83          16.59          16.17           60.5         -7.554          12.55          103.7          19.38         -52.69          29.05          23.11
     1.378              -45.81          16.57          16.54          60.25         -7.519          12.55          104.1          19.29         -52.21          29.69          23.79
     1.414               -45.8          16.55           17.0          59.94         -7.477          12.55          104.7          19.17         -51.62          30.48          24.62
     1.449              -45.78          16.53          17.57          59.55         -7.423          12.55          105.3          19.03         -50.89          31.46          25.67
     1.484              -45.76           16.5          18.28          59.06         -7.356          12.55          106.1          18.85         -49.96           32.7          26.99
